<?xml version="1.0" encoding="utf-8"?>
<!-- Generator: Adobe Illustrator 18.1.1, SVG Export Plug-In . SVG Version: 6.00 Build 0)  -->
<svg version="1.1" id="Layer_1" xmlns="http://www.w3.org/2000/svg" xmlns:xlink="http://www.w3.org/1999/xlink" x="0px" y="0px"
	 viewBox="-271 362.9 68.1 68.1" enable-background="new -271 362.9 68.1 68.1" xml:space="preserve">
<path d="M-265,384.9h9l2.7,7.8h3.6l-8.5-25.3h-4l-8.5,25.3h3.4C-267.4,392.7-265,384.9-265,384.9z M-261.8,375
	c0.4-1.6,0.9-3.1,1.3-4.5c0.4,1.6,0.7,2.9,1.3,4.7l2.5,7.2h-7.6L-261.8,375z M-223.3,413.3c0-1.3-0.9-3.4-2.5-6c0-0.9,0.7-2,1.8-3.1
	c1.1-1.3,2-2.2,2.2-2.9c-0.4-0.7-1.3-1.1-2.5-1.6c-0.2,0-0.9,0.4-2.5,1.3c-1.1,0.5-1.8,0.9-2.5,0.9c-0.2,0-0.7,0-1.1-0.2
	c-0.5-0.2-0.9-0.2-1.1-0.2h-0.7c0.4,0.7,0.7,1.3,0.7,1.6v17.5c0,0.4,0,1.1-0.2,2c-0.2,0.9-0.2,1.6-0.2,2c0,1.1,0.4,1.8,1.1,2.2
	l0.9-0.2c0.2,0,0.2-0.9,0.4-2.7v-21.1c2.2-0.7,3.8-1.1,4.9-1.6l0.2,0.2v0.2c-0.4,0.9-0.7,1.8-1.1,2.5c-0.7,1.3-0.9,2-0.9,2.5
	c0,0.2,0.2,0.9,0.7,2c0.4,1.3,0.7,2,0.9,2.2l-0.2,0.4c-1.3-0.2-2.7-0.4-4-0.7c0.7,0.2,1.6,0.9,2.7,1.8c1.1,0.9,2,1.6,2.5,1.8
	C-223.5,414.4-223.3,414-223.3,413.3L-223.3,413.3z M-206.7,409.1c1.6,0,2.7-0.2,3.1-0.4c0-0.4-0.4-0.9-1.1-1.3
	c-0.7-0.5-1.1-0.5-1.8-0.5c-1.1,0-2.7,0.2-4.5,0.7c-2.2,0.5-3.8,0.7-4.3,0.9c-3.6,0.4-6.3,0.7-8.1,0.9c0.7,1.1,1.3,1.8,2.2,1.8
	c0.7,0,1.6,0,2.9-0.2c0.9-0.2,1.8-0.2,2.9-0.4c0.4,0.4,0.7,0.9,0.7,1.8v11.6l-0.2,0.2l-0.4-0.2c-1.8-0.4-3.1-0.7-4-0.9
	c0.7,0.4,1.3,1.3,2.2,2.5c0.9,1.1,1.6,2,2,2.5c1.6-0.9,2.5-2.7,2.5-5.6V416c0-2.5-0.2-4.5-0.7-6.3
	C-210.3,409.3-208.3,409.1-206.7,409.1z M-206.1,416.5c-1.6-0.7-3.1-1.1-4.7-1.1c0.7,0.7,2,1.6,3.4,3.1c1.3,1.3,2.7,2.5,3.4,3.1
	c0.7,0,0.9-0.7,0.9-1.8C-203.1,418.5-204,417.4-206.1,416.5z M-210.3,400.6c-0.4,0-1.1,0.2-2.2,0.4c-1.6,0.5-2.2,0.7-2.2,0.7
	c-1.1,0.2-2.7,0.4-4.7,0.7c0,0.9,0.9,1.3,2.5,1.3c0.9,0,2.5-0.2,4.7-0.4c2.5-0.4,3.8-0.7,4-1.1c0-0.4-0.2-0.7-0.9-1.1
	C-209.4,400.6-209.9,400.6-210.3,400.6L-210.3,400.6z M-220.4,414.7l-0.7,1.3c-0.2,0.9-0.4,1.3-0.7,1.6c-0.4,0.4-0.9,1.1-1.6,1.8
	c-0.7,0.9-0.9,1.3-0.9,1.8c0,0.2,0,0.5,0.2,0.7c0.2,0.2,0.4,0.2,0.7,0.2c0.7,0,1.6-0.4,2.2-1.6c0.7-0.9,0.9-2,0.9-3.1
	C-219.7,415.6-219.9,414.7-220.4,414.7L-220.4,414.7z M-222,379.3c0,0,19.7-2.2,14.1,17c16.6-25.8-14.1-27.5-14.1-27.5V364
	l-15.7,10.1l15.7,10.1V379.3L-222,379.3z M-252,414.7c0,0-19.7,2.2-14.1-17c-16.6,25.8,14.1,27.6,14.1,27.6v4.7l15.7-10.1
	l-15.7-10.1C-252,409.7-252,414.7-252,414.7z"/>
</svg>
