<?xml version="1.0" encoding="utf-8"?>
<!-- Generator: Adobe Illustrator 17.0.0, SVG Export Plug-In . SVG Version: 6.00 Build 0)  -->
<!DOCTYPE svg PUBLIC "-//W3C//DTD SVG 1.1//EN" "http://www.w3.org/Graphics/SVG/1.1/DTD/svg11.dtd">
<svg version="1.1" id="Layer_1" xmlns="http://www.w3.org/2000/svg" xmlns:xlink="http://www.w3.org/1999/xlink" x="0px" y="0px"
	 width="792px" height="612px" viewBox="0 0 792 612" enable-background="new 0 0 792 612" xml:space="preserve">
<g>
	<g>
		<rect x="386.438" y="219.938" width="38.25" height="19.125"/>
	</g>
	<path d="M424.688,86.062V51.8c0-7.487-9.343-13.55-18.905-13.55h-2.037c-9.563,0-17.277,6.063-17.277,13.55v34.262H424.688z"/>
	<path d="M591.008,210.375c5.451-4.026,27.693-31.346,47.612-57.375c-19.909-26.029-42.151-53.349-47.612-57.375H424.688h-33.469
		c-2.63,0-4.781,2.152-4.781,4.781v105.188c0,2.63,2.152,4.781,4.781,4.781h33.469H591.008z M405.562,176.906v-47.812
		c0-7.908,6.436-14.344,14.344-14.344h4.781h157.781c2.333,0,7.813,0,32.044,35.563l1.836,2.687l-1.836,2.687
		c-24.231,35.563-29.711,35.563-32.044,35.563H424.688h-4.781C411.998,191.25,405.562,184.814,405.562,176.906z"/>
	<path d="M581.732,181.688c3.605-2.333,14.191-15.96,23.027-28.688c-8.845-12.728-19.421-26.364-23.027-28.688H424.688h-4.781
		c-2.63,0-4.781,2.152-4.781,4.781v47.812c0,2.63,2.152,4.781,4.781,4.781h4.781H581.732z"/>
	<path d="M177.296,306c19.909,26.029,42.151,53.349,47.612,57.375h161.53H417c4.583,0,7.688-1.625,7.688-5.958v-104.01
		c0-4.781-4.153-4.781-4.938-4.781H224.898C219.448,252.651,197.205,279.971,177.296,306z M386.438,267.75h5.183
		c7.813,0,13.942,6.302,13.942,14.344v47.812c0,7.64-7.172,14.344-15.338,14.344h-0.01h-3.777h-153c-2.333,0-7.813,0-32.044-35.563
		L199.558,306l1.836-2.687c24.231-35.563,29.711-35.563,32.044-35.563H386.438z"/>
	<g>
		<path d="M386.438,569.762c0,7.487,7.746,13.55,17.308,13.55h2.037c9.562,0,18.905-6.063,18.905-13.55V372.938h-38.25V569.762z"/>
	</g>
	<path d="M234.174,334.688h152.264h3.787c2.869,0,5.776-2.41,5.776-4.781v-47.812c0-2.773-1.836-4.781-4.38-4.781l0,0h-5.183
		H234.174c-3.605,2.333-14.191,15.96-23.027,28.688C219.993,318.728,230.569,332.364,234.174,334.688z"/>
</g>
</svg>
